<svg width="81" height="64" viewBox="0 0 81 64" fill="none" xmlns="http://www.w3.org/2000/svg">
<path d="M11.4636 51.6682C7.51716 43.8733 8.42052 24.998 8.42052 24.998C8.42052 24.998 5.81569 22.293 3.83509 18.6858C1.52835 14.4847 0 7.02286 0 7.02286C0 7.02286 3.48224 10.5225 7.25332 12.8334C10.5552 14.8568 14.1563 15.7346 14.7984 15.676C16.1741 15.5506 21.6913 12.2188 26.262 12.8334C31.311 13.5124 38.4855 22.2666 41.1002 25.6669C41.1002 25.6669 41.6858 25.2489 40.6436 26.0365C36.7768 23.5571 26.2971 17.4197 22.4269 21.0268C17.5798 25.5444 21.3084 34.0373 23.2607 37.9987C27.6264 46.8573 37.4619 54.8204 40.8937 57.423C40.8937 57.423 41.3523 57.0189 40.5186 57.7484C35.8942 56.0818 22.5231 51.1652 19.0921 48.8256C13.9105 45.2923 24.4279 64 24.4279 64C24.4279 64 14.8669 58.3904 11.4636 51.6682Z" fill="#58BC8C"/>
<path d="M23.219 6.27041C23.219 9.73346 20.4195 12.5408 16.9661 12.5408C13.5127 12.5408 10.7132 9.73346 10.7132 6.27041C10.7132 2.80736 13.5127 0 16.9661 0C20.4195 0 23.219 2.80736 23.219 6.27041Z" fill="#58BC8C"/>
<path d="M69.5491 51.6682C73.4911 43.8733 72.5888 24.998 72.5888 24.998C72.5888 24.998 75.1907 22.293 77.1692 18.6858C79.4733 14.4847 81 7.02286 81 7.02286C81 7.02286 77.5216 10.5225 73.7547 12.8334C70.4565 14.8568 66.8594 15.7346 66.2179 15.676C64.8438 15.5506 59.3327 12.2188 54.767 12.8334C49.7845 13.5043 42.7297 22.0565 40.0418 25.5415C39.347 26.4423 40.0529 25.5271 40.0529 25.5271C40.0529 25.5271 39.5686 25.362 40.5679 26.0431C44.5566 23.4998 54.7862 17.4703 58.5979 21.0268C63.4397 25.5444 59.7152 34.0373 57.7651 37.9987C53.3864 46.8935 43.4993 54.8854 40.1099 57.4545C40.1099 57.4545 39.5269 57.3378 40.5679 57.8132C45.2983 56.1047 58.5323 51.1445 61.9291 48.8256C67.1049 45.2923 56.5992 64 56.5992 64C56.5992 64 66.1495 58.3904 69.5491 51.6682Z" fill="#FF5E5E"/>
<path d="M57.8067 6.27041C57.8067 9.73346 60.6031 12.5408 64.0527 12.5408C67.5022 12.5408 70.2986 9.73346 70.2986 6.27041C70.2986 2.80736 67.5022 0 64.0527 0C60.6031 0 57.8067 2.80736 57.8067 6.27041Z" fill="#FF5E5E"/>
</svg>
